<?xml version="1.0" encoding="utf-8"?>
<!-- Generator: Adobe Illustrator 26.3.1, SVG Export Plug-In . SVG Version: 6.00 Build 0)  -->
<svg version="1.1" id="Calque_5" xmlns="http://www.w3.org/2000/svg" xmlns:xlink="http://www.w3.org/1999/xlink" x="0px" y="0px"
	 viewBox="0 0 2000.3 2000.3" style="enable-background:new 0 0 2000.3 2000.3;" xml:space="preserve">
<path d="M1440.5,781.5c-20.9-67.8-160-319-191.3-358s-107.8-28.9-140.8-43.3c-33-14.4,91.5-112.5,110.6-167.4S1002-2.4,951.6,0
	c-90.4,4.3-240.5,150.7-249.2,211.4c-9.4,65.4,182.4,162.4,143.3,171.7c-158.2,37.5-271.3,254.1-290.4,317.6
	c-19.1,63.5,53.9,384,95.6,420.1c9.9,8.6,21.5,14.4,34.2,18.4c-10,39.3,51,156.1,51,201.1c0,56.3-12.2,215.1-5.2,245.4
	c7,30.3,29.6,98.2,48.7,118.4s33,62.1,43.5,92.4c10.4,30.3,74.8,73.6,97.4,89.5c2.6,1.8,5.2,3.9,8,6.3c1,0.9,2.1,1.8,3.2,2.8
	c-4.2,0.9-7.7,27-25,42.9c-17.4,15.9-34.8,28.9-17.4,44.8s48.7,17.3,80,17.3s53.9-37.5,71.3-53.4c17.4-15.9,44.3-20.3,43.5-36.1
	c-1.7-31.8-22.6-129.9-38.3-153c-15.7-23.1-73-85.2-73-119.8s17.4-70.7,22.6-112.6s-3.5-118.4-10.4-141.5
	c-7-23.1,15.7-67.8,15.7-67.8c29.6-1.4,76.5,135.7,83.5,163.1s-8.7,93.8-5.2,114.1c3.5,20.2,7.1,39.3,7,60.8
	c-0.1,21.5,13.8,33,15.6,56.1s-7,62.1,8.7,75.1c15.7,13,17.4,44.8,7,72.2s-31.3,67.8-3.5,86.6c15.6,10.5,27.3,7,38,0.4
	c0.3,0.6,0.6,0.9,0.6,0.9c6.7,13.2,15.4,27.6,18.8,39.1s22.6,15.9,45.2,15.9s46.9,0,69.6-7.2s35.4-24,19.4-39.4
	c-10.8-10.5-28-28.6-43.9-42.2c15.6-6.6,32-20.5,27.9-35.3c-5.2-18.8-5.7-84.2,0.6-118.6c6.3-34.4,58.5-168.7,56.7-207.7
	s1.7-164.6-12.2-187.7s33-112.6,26.1-140c-6.9-27.1,25.3-136,0.9-152.5C1440.7,1044.5,1460.4,846.4,1440.5,781.5L1440.5,781.5z"/>
</svg>
