<?xml version="1.0" encoding="UTF-8"?><svg id="Calque_5" xmlns="http://www.w3.org/2000/svg" viewBox="0 0 2000.33 2000.33"><defs><style>.cls-1{fill:#fff;}</style></defs><path class="cls-1" d="M1440.51,781.53c-20.87-67.85-159.98-319.05-191.28-358.03-31.3-38.98-107.81-28.87-140.85-43.31-33.04-14.44,91.48-112.53,110.61-167.39C1238.12,157.94,1001.97-2.38,951.63,.03c-90.43,4.33-240.47,150.74-249.17,211.37-9.38,65.4,182.37,162.42,143.33,171.67-158.24,37.54-271.28,254.09-290.4,317.61-19.13,63.52,53.91,384.02,95.64,420.11,9.92,8.58,21.53,14.45,34.19,18.38-9.96,39.34,51.02,156.1,51.02,201.06,0,56.3-12.17,215.11-5.22,245.43,6.96,30.32,29.56,98.17,48.69,118.38,19.13,20.21,33.04,62.08,43.47,92.4,10.43,30.32,74.77,73.63,97.38,89.51,2.6,1.83,5.25,3.95,7.97,6.28,1.04,.9,2.1,1.83,3.16,2.79-4.23,.95-7.65,27.02-25.04,42.9-17.39,15.88-34.78,28.87-17.39,44.75s48.69,17.32,79.99,17.32,53.91-37.54,71.3-53.42c17.39-15.88,44.34-20.29,43.47-36.09-1.74-31.76-22.61-129.93-38.26-153.03-15.65-23.1-73.04-85.18-73.04-119.83s17.39-70.74,22.61-112.61c5.22-41.87-3.48-118.38-10.43-141.48-6.96-23.1,15.65-67.85,15.65-67.85,29.56-1.44,76.51,135.71,83.47,163.14,6.96,27.43-8.69,93.84-5.22,114.05,3.48,20.21,7.09,39.35,7.02,60.82-.06,21.47,13.85,33.02,15.59,56.12,1.74,23.1-6.96,62.08,8.69,75.07,15.65,12.99,17.39,44.75,6.96,72.18-10.43,27.43-31.3,67.85-3.48,86.62,15.55,10.49,27.3,7,37.98,.36,.35,.59,.57,.93,.57,.93,6.67,13.15,15.36,27.58,18.84,39.13,3.48,11.55,22.61,15.88,45.21,15.88s46.95,0,69.56-7.22c22.61-7.22,35.36-23.99,19.42-39.42-10.84-10.5-27.99-28.55-43.87-42.21,15.64-6.64,32.04-20.52,27.93-35.31-5.22-18.77-5.67-84.22,.64-118.62,6.31-34.41,58.48-168.67,56.74-207.65-1.74-38.98,1.74-164.58-12.17-187.68-13.91-23.1,33.04-112.61,26.08-140.04-6.87-27.11,25.31-135.98,.89-152.47,79.26-24.88,99.05-222.99,79.1-287.85Z"/></svg>